<?xml version="1.0" encoding="UTF-8" standalone="no"?>
<svg
   xmlns:dc="http://purl.org/dc/elements/1.1/"
   xmlns:cc="http://creativecommons.org/ns#"
   xmlns:rdf="http://www.w3.org/1999/02/22-rdf-syntax-ns#"
   xmlns:svg="http://www.w3.org/2000/svg"
   xmlns="http://www.w3.org/2000/svg"
   xmlns:sodipodi="http://sodipodi.sourceforge.net/DTD/sodipodi-0.dtd"
   xmlns:inkscape="http://www.inkscape.org/namespaces/inkscape"
   version="1.1"
   id="Layer_1"
   x="0px"
   y="0px"
   viewBox="0 0 511.999 511.999"
   style="enable-background:new 0 0 511.999 511.999;"
   xml:space="preserve"
   sodipodi:docname="wifi (1).svg"
   inkscape:version="1.0.2 (e86c8708, 2021-01-15)"><metadata
   id="metadata227"><rdf:RDF><cc:Work
       rdf:about=""><dc:format>image/svg+xml</dc:format><dc:type
         rdf:resource="http://purl.org/dc/dcmitype/StillImage" /><dc:title></dc:title></cc:Work></rdf:RDF></metadata><defs
   id="defs225" /><sodipodi:namedview
   pagecolor="#ffffff"
   bordercolor="#666666"
   borderopacity="1"
   objecttolerance="10"
   gridtolerance="10"
   guidetolerance="10"
   inkscape:pageopacity="0"
   inkscape:pageshadow="2"
   inkscape:window-width="1190"
   inkscape:window-height="854"
   id="namedview223"
   showgrid="false"
   inkscape:zoom="1.2636743"
   inkscape:cx="255.9995"
   inkscape:cy="255.9995"
   inkscape:window-x="0"
   inkscape:window-y="23"
   inkscape:window-maximized="0"
   inkscape:current-layer="Layer_1" />
<path
   style="fill:#00D6C1;"
   d="M139.137,345.227c-6.161,0-12.356-2.078-17.449-6.336c-11.523-9.634-13.044-26.774-3.398-38.282  c34.291-40.918,84.486-64.385,137.712-64.385c53.223,0,103.418,23.467,137.71,64.383c9.644,11.507,8.123,28.648-3.398,38.282  c-11.52,9.635-28.684,8.116-38.329-3.395c-23.924-28.545-58.91-44.919-95.983-44.919c-37.076,0-72.061,16.373-95.987,44.92  C154.634,341.918,146.912,345.227,139.137,345.227z"
   id="path160" />
<g
   style="opacity:0.1;"
   id="g164">
	<path
   d="M182.64,312.614c-6.161,0-12.356-2.078-17.449-6.336c-11.523-9.634-13.044-26.774-3.398-38.282   c3.083-3.679,6.301-7.212,9.633-10.606c-20.042,10.722-38.115,25.296-53.136,43.219c-9.646,11.507-8.125,28.648,3.398,38.282   c5.093,4.258,11.289,6.336,17.449,6.336c7.775,0,15.497-3.309,20.877-9.732c7.458-8.899,15.992-16.613,25.327-23.019   C184.444,312.565,183.542,312.614,182.64,312.614z"
   id="path162" />
</g>
<path
   style="fill:#00D6C1;"
   d="M87.06,276.08c-6.379,0-12.785-2.227-17.955-6.766c-11.285-9.911-12.39-27.082-2.469-38.354  c47.961-54.484,116.981-85.735,189.364-85.735c72.385,0,141.405,31.25,189.365,85.732c9.921,11.272,8.816,28.445-2.471,38.355  c-11.284,9.907-28.475,8.805-38.399-2.467C366.865,224.098,312.742,199.58,256,199.58c-56.739,0-110.864,24.518-148.495,67.269  C102.125,272.957,94.611,276.08,87.06,276.08z"
   id="path166" />
<g
   style="opacity:0.1;"
   id="g170">
	<path
   d="M141.617,232.867c-6.379,0-12.785-2.227-17.955-6.766c-11.285-9.911-12.39-27.082-2.469-38.354   c2.315-2.63,4.693-5.188,7.104-7.708c-22.877,13.452-43.74,30.563-61.661,50.921c-9.921,11.272-8.816,28.443,2.469,38.354   c5.169,4.539,11.575,6.766,17.955,6.766c7.551,0,15.065-3.122,20.444-9.232c11.767-13.366,25.144-24.951,39.711-34.56   C145.373,232.673,143.496,232.867,141.617,232.867z"
   id="path168" />
</g>
<path
   style="fill:#00D6C1;"
   d="M35.038,207.236c-6.491,0-13.005-2.308-18.208-6.991c-11.161-10.049-12.054-27.231-1.993-38.381  C76.419,93.619,164.321,54.48,256.002,54.48c91.678,0,179.578,39.139,241.161,107.382c10.062,11.149,9.169,28.334-1.993,38.381  c-11.164,10.047-28.369,9.16-38.426-1.989c-51.282-56.83-124.45-89.422-200.742-89.422c-76.295,0-149.464,32.593-200.746,89.424  C49.885,204.206,42.476,207.236,35.038,207.236z"
   id="path172" />
<g
   style="opacity:0.1;"
   id="g176">
	<path
   d="M79.523,156.913c-11.161-10.049-12.054-27.232-1.993-38.381c8.353-9.257,17.206-17.959,26.471-26.119   c-33.206,17.61-63.479,40.988-89.165,69.451c-10.061,11.15-9.168,28.332,1.993,38.381c5.203,4.683,11.717,6.991,18.208,6.991   c7.439,0,14.848-3.03,20.219-8.981c11.603-12.857,24.333-24.46,37.959-34.74C88.281,162.689,83.515,160.506,79.523,156.913z"
   id="path174" />
</g>



<path
   d="M256.001,228.386c-55.551,0-107.933,24.49-143.718,67.188c-6.01,7.17-8.866,16.25-8.04,25.566  c0.825,9.319,5.236,17.758,12.418,23.762c6.294,5.263,14.276,8.162,22.476,8.162c10.411,0,20.211-4.569,26.884-12.536  c22.434-26.766,55.231-42.118,89.981-42.118c34.749,0,67.545,15.351,89.976,42.115c6.676,7.968,16.475,12.538,26.885,12.538  c8.2,0,16.183-2.899,22.478-8.164c7.181-6.004,11.59-14.443,12.415-23.762c0.826-9.316-2.029-18.395-8.038-25.565  C363.932,252.875,311.55,228.386,256.001,228.386z M392.143,319.755c-0.457,5.146-2.891,9.805-6.858,13.123  c-3.481,2.91-7.892,4.513-12.423,4.513c-5.76,0-11.181-2.526-14.872-6.931c-25.418-30.328-62.591-47.722-101.989-47.722  c-39.399,0-76.574,17.394-101.995,47.724c-3.688,4.403-9.108,6.929-14.87,6.929c-4.531,0-8.942-1.602-12.423-4.512  c-3.966-3.317-6.402-7.977-6.859-13.122c-0.456-5.143,1.121-10.155,4.441-14.114c32.798-39.136,80.803-61.583,131.705-61.583  c50.9,0,98.904,22.444,131.704,61.581C391.023,309.6,392.599,314.612,392.143,319.755z"
   id="path184" />
<path
   d="M255.999,137.39c-74.633,0-145.798,32.218-195.247,88.394c-6.182,7.024-9.256,16.032-8.656,25.364  c0.6,9.336,4.803,17.878,11.838,24.057c6.399,5.618,14.612,8.713,23.126,8.713c10.078,0,19.673-4.333,26.327-11.891  c36.144-41.06,88.124-64.61,142.613-64.61c54.49,0,106.471,23.549,142.612,64.609c6.653,7.557,16.249,11.891,26.328,11.891  c8.513-0.001,16.725-3.095,23.122-8.713c7.033-6.175,11.238-14.718,11.84-24.053c0.601-9.335-2.473-18.344-8.656-25.367  C401.798,169.607,330.634,137.39,255.999,137.39z M444.261,250.142c-0.331,5.156-2.654,9.872-6.539,13.284  c-3.538,3.106-8.077,4.816-12.783,4.817c-5.577,0-10.885-2.396-14.562-6.573C371.26,217.23,314.993,191.743,256,191.743  c-58.991,0-115.259,25.488-154.377,69.926c-3.679,4.179-8.987,6.574-14.564,6.574c-4.706,0-9.246-1.712-12.783-4.816  c-3.885-3.413-6.207-8.13-6.538-13.285c-0.331-5.152,1.367-10.125,4.779-14.004c46.475-52.795,113.351-83.075,183.482-83.075  c70.132,0,137.01,30.28,183.482,83.073C442.895,240.015,444.592,244.989,444.261,250.142z"
   id="path186" />
<path
   d="M502.981,156.611C439.914,86.725,349.894,46.644,256.001,46.644c-93.895,0-183.917,40.082-246.984,109.97  c-6.268,6.946-9.454,15.916-8.969,25.257c0.484,9.341,4.582,17.936,11.538,24.2c6.45,5.805,14.779,9.002,23.451,9.002  c9.913,0,19.403-4.216,26.037-11.567c49.799-55.186,120.847-86.837,194.928-86.837c74.079,0,145.125,31.65,194.923,86.835  c6.632,7.352,16.121,11.568,26.034,11.567c8.675,0,17.005-3.196,23.455-9.002c6.956-6.261,11.054-14.854,11.539-24.196  C512.437,172.528,509.25,163.558,502.981,156.611z M496.3,181.058c-0.267,5.158-2.531,9.902-6.372,13.36  c-3.567,3.209-8.173,4.978-12.97,4.978c-5.484,0.001-10.731-2.329-14.397-6.393c-52.765-58.473-128.054-92.009-206.56-92.009  c-78.509,0-153.799,33.537-206.564,92.011c-3.668,4.064-8.916,6.394-14.401,6.394c-4.793,0-9.398-1.768-12.964-4.978  c-3.842-3.46-6.104-8.206-6.373-13.363c-0.267-5.157,1.492-10.108,4.954-13.945C80.753,100.513,166.534,62.317,256.001,62.317  c89.465,0,175.243,38.196,235.343,104.796C494.807,170.947,496.567,175.901,496.3,181.058z"
   id="path188" />

<g
   id="g192">
</g>
<g
   id="g194">
</g>
<g
   id="g196">
</g>
<g
   id="g198">
</g>
<g
   id="g200">
</g>
<g
   id="g202">
</g>
<g
   id="g204">
</g>
<g
   id="g206">
</g>
<g
   id="g208">
</g>
<g
   id="g210">
</g>
<g
   id="g212">
</g>
<g
   id="g214">
</g>
<g
   id="g216">
</g>
<g
   id="g218">
</g>
<g
   id="g220">
</g>
</svg>
