<svg height="512" viewBox="0 0 512 512" width="512" xmlns="http://www.w3.org/2000/svg"><g id="flat"><path d="m40 256 16 16h32l-8-32h40l-8 32h40l-8-32h40l-8 32h40l-8-32h32l16 16 16-16v-32l-32 8v-40l32 8v-40l-32 8v-40l32 8v-40l-32 8v-32l16-16-16-16h-32l8 32h-40l8-32h-40l8 32h-40l8-32h-40l8 32h-32l-16-16-16 16v32l32-8v40l-32-8v40l32-8v40l-32-8v40l32-8v32z" fill="#ffcd01"/><path d="m256 256 16 16h32l-8-32h40l-8 32h40l-8-32h40l-8 32h40l-8-32h32l16 16 16-16v-32l-32 8v-40l32 8v-40l-32 8v-40l32 8v-40l-32 8v-32l16-16-16-16h-32l8 32h-40l8-32h-40l8 32h-40l8-32h-40l8 32h-32l-16-16-16 16v32l32-8v40l-32-8v40l32-8v40l-32-8v40l32-8v32z" fill="#8726e2"/><path d="m40 472 16 16h32l-8-32h40l-8 32h40l-8-32h40l-8 32h40l-8-32h32l16 16 16-16v-32l-32 8v-40l32 8v-40l-32 8v-40l32 8v-40l-32 8v-32l16-16-16-16h-32l8 32h-40l8-32h-40l8 32h-40l8-32h-40l8 32h-32l-16-16-16 16v32l32-8v40l-32-8v40l32-8v40l-32-8v40l32-8v32z" fill="#ff2b63"/><path d="m256 472 16 16h32l-8-32h40l-8 32h40l-8-32h40l-8 32h40l-8-32h32l16 16 16-16v-32l-32 8v-40l32 8v-40l-32 8v-40l32 8v-40l-32 8v-32l16-16-16-16h-32l8 32h-40l8-32h-40l8 32h-40l8-32h-40l8 32h-32l-16-16-16 16v32l32-8v40l-32-8v40l32-8v40l-32-8v40l32-8v32z" fill="#48bdff"/><path d="m144 112a8 8 0 0 0 -7.49 5.191l-24 64 14.98 5.618 4.053-10.809h24.914l4.053 10.809 14.98-5.618-24-64a8 8 0 0 0 -7.49-5.191zm-6.456 48 6.456-17.216 6.456 17.216z" fill="#ff2b63"/><path d="m400 136a24.028 24.028 0 0 0 -24-24h-32a8 8 0 0 0 -8 8v64a8 8 0 0 0 8 8h32a23.988 23.988 0 0 0 17.874-40 23.9 23.9 0 0 0 6.126-16zm-24 40h-24v-16h24a8 8 0 0 1 0 16zm0-32h-24v-16h24a8 8 0 0 1 0 16z" fill="#48bdff"/><path d="m144.722 344a16.63 16.63 0 0 1 14.956 9.243l14.31-7.154a32.721 32.721 0 0 0 -61.988 14.633v14.556a32.721 32.721 0 0 0 61.988 14.633l-14.31-7.154a16.722 16.722 0 0 1 -31.678-7.479v-14.556a16.74 16.74 0 0 1 16.722-16.722z" fill="#ffcd01"/><path d="m360 328h-16a8 8 0 0 0 -8 8v64a8 8 0 0 0 8 8h16a40 40 0 0 0 0-80zm0 64h-8v-48h8a24 24 0 0 1 0 48z" fill="#8726e2"/><path d="m272 120v-40l-32 8v-32l16-16-16-16h-17.556a254.821 254.821 0 0 1 1.556 28 251.7 251.7 0 0 1 -108.85 207.4l-3.15 12.6h40l-8-32h40l-8 32h40l-8-32h32l16 16 16-16v-32l-32 8v-40l32 8v-40l-32 8v-40z" fill="#ffba01"/><path d="m330.505 261.98-2.505 10.02h40l-7.6-30.406a252.529 252.529 0 0 1 -29.895 20.386z" fill="#691daf"/><path d="m488 120v-40l-32 8v-32l16-16-16-16h-.789q.777 9.9.789 20a251.5 251.5 0 0 1 -93.622 196h37.622l-8 32h40l-8-32h32l16 16 16-16v-32l-32 8v-40l32 8v-40l-32 8v-40z" fill="#691daf"/><path d="m272 336v-40l-32 8v-32l16-16-16-16h-.051a251.909 251.909 0 0 1 -129 216h9.051l-8 32h40l-8-32h40l-8 32h40l-8-32h32l16 16 16-16v-32l-32 8v-40l32 8v-40l-32 8v-40z" fill="#e5235f"/><path d="m48.638 480.638 7.362 7.362h32l-4.669-18.676a250.083 250.083 0 0 1 -34.693 11.314z" fill="#e5235f"/><g fill="#3ba4f2"><path d="m257.757 470.243-1.757 1.757 16 16h32l-6.433-25.732a250.775 250.775 0 0 1 -39.81 7.975z"/><path d="m488 336v-40l-21.428 5.357a252.7 252.7 0 0 1 -150.062 154.643h19.49l-8 32h40l-8-32h40l-8 32h40l-8-32h32l16 16 16-16v-32l-32 8v-40l32 8v-40l-32 8v-40z"/></g></g></svg>