<svg id="Capa_1" enable-background="new 0 0 510 510" height="512" viewBox="0 0 510 510" width="512" xmlns="http://www.w3.org/2000/svg" xmlns:xlink="http://www.w3.org/1999/xlink"><linearGradient id="lg1"><stop offset="0" stop-color="#99e6fc"/><stop offset=".5725" stop-color="#01d0fb"/><stop offset="1" stop-color="#4f66d0"/></linearGradient><linearGradient id="SVGID_1_" gradientUnits="userSpaceOnUse" x1="-35.901" x2="288.207" xlink:href="#lg1" y1="382.5" y2="382.5"/><linearGradient id="SVGID_2_" gradientUnits="userSpaceOnUse" x1="-48.5" x2="266.201" xlink:href="#lg1" y1="382.5" y2="382.5"/><linearGradient id="lg2"><stop offset="0" stop-color="#99e6fc"/><stop offset=".513" stop-color="#01d0fb"/><stop offset="1" stop-color="#4f66d0"/></linearGradient><linearGradient id="SVGID_3_" gradientUnits="userSpaceOnUse" x1="-223.5" x2="324.268" xlink:href="#lg2" y1="382.5" y2="382.5"/><linearGradient id="SVGID_4_" gradientUnits="userSpaceOnUse" x1="-126.995" x2="219.44" xlink:href="#lg2" y1="393.856" y2="393.856"/><linearGradient id="lg3"><stop offset="0" stop-color="#fecec8"/><stop offset=".5725" stop-color="#fe73c5"/><stop offset="1" stop-color="#f1239a"/></linearGradient><linearGradient id="SVGID_5_" gradientUnits="userSpaceOnUse" x1="42.399" x2="225.433" xlink:href="#lg3" y1="382.5" y2="382.5"/><linearGradient id="SVGID_6_" gradientUnits="userSpaceOnUse" x1="52" x2="197.582" xlink:href="#lg3" y1="382.574" y2="382.574"/><linearGradient id="SVGID_7_" gradientUnits="userSpaceOnUse" x1="48.5" x2="231.5" xlink:href="#lg2" y1="382.5" y2="382.5"/><linearGradient id="SVGID_8_" gradientUnits="userSpaceOnUse" x1="219.099" x2="543.207" xlink:href="#lg3" y1="382.5" y2="382.5"/><linearGradient id="SVGID_9_" gradientUnits="userSpaceOnUse" x1="206.5" x2="521.201" xlink:href="#lg3" y1="382.5" y2="382.5"/><linearGradient id="SVGID_10_" gradientUnits="userSpaceOnUse" x1="31.5" x2="579.268" xlink:href="#lg3" y1="382.5" y2="382.5"/><linearGradient id="SVGID_11_" gradientUnits="userSpaceOnUse" x1="303.5" x2="486.5" xlink:href="#lg3" y1="382.5" y2="382.5"/><linearGradient id="SVGID_12_" gradientUnits="userSpaceOnUse" x1="145.81" x2="436.613" xlink:href="#lg3" y1="387.74" y2="387.74"/><linearGradient id="lg4"><stop offset="0" stop-color="#fff3be"/><stop offset=".5725" stop-color="#ffd15b"/><stop offset="1" stop-color="#eca026"/></linearGradient><linearGradient id="SVGID_13_" gradientUnits="userSpaceOnUse" x1="311.566" x2="469.168" xlink:href="#lg4" y1="382.5" y2="382.5"/><linearGradient id="SVGID_14_" gradientUnits="userSpaceOnUse" x1="294.535" x2="447.835" xlink:href="#lg4" y1="399.649" y2="399.649"/><linearGradient id="SVGID_15_" gradientUnits="userSpaceOnUse" x1="91.599" x2="415.707" xlink:href="#lg4" y1="127.5" y2="127.5"/><linearGradient id="SVGID_16_" gradientUnits="userSpaceOnUse" x1="79" x2="393.701" xlink:href="#lg4" y1="127.5" y2="127.5"/><linearGradient id="SVGID_17_" gradientUnits="userSpaceOnUse" x1="-96" x2="451.768" xlink:href="#lg4" y1="127.5" y2="127.5"/><linearGradient id="SVGID_18_" gradientUnits="userSpaceOnUse" x1="176" x2="359" xlink:href="#lg4" y1="127.5" y2="127.5"/><linearGradient id="SVGID_19_" gradientUnits="userSpaceOnUse" x1="52" x2="273.86" xlink:href="#lg4" y1="140.183" y2="140.183"/><linearGradient id="lg5"><stop offset="0" stop-color="#c2fae3"/><stop offset=".5725" stop-color="#00f2a6"/><stop offset="1" stop-color="#07b27b"/></linearGradient><linearGradient id="SVGID_20_" gradientUnits="userSpaceOnUse" x1="172" x2="336.924" xlink:href="#lg5" y1="127.5" y2="127.5"/><linearGradient id="SVGID_21_" gradientUnits="userSpaceOnUse" x1="127" x2="331.071" xlink:href="#lg5" y1="141.234" y2="141.234"/><g><g><g><path d="m222.166 255h-189.332c-18.134 0-32.834 14.7-32.834 32.833v189.333c0 18.134 14.7 32.834 32.834 32.834h189.333c18.133 0 32.833-14.7 32.833-32.834v-189.333c0-18.133-14.7-32.833-32.834-32.833z" fill="url(#SVGID_1_)"/><path d="m222.166 255h-40.02c18.134 0 32.834 14.7 32.834 32.834v189.333c0 18.134-14.7 32.834-32.834 32.834h40.02c18.134-.001 32.834-14.701 32.834-32.835v-189.333c0-18.133-14.7-32.833-32.834-32.833z" fill="url(#SVGID_2_)"/><path d="m225.176 314.647c-16.471 0-29.824-13.353-29.824-29.824 0-.02 0-.04 0-.06.006-3.161-2.46-5.764-5.621-5.764h-124.462c-3.161 0-5.628 2.603-5.621 5.764v.06c0 16.471-13.353 29.824-29.824 29.824-.02 0-.04 0-.06 0-3.161-.006-5.764 2.46-5.764 5.621v124.462c0 3.161 2.603 5.628 5.764 5.621h.06c16.471 0 29.824 13.353 29.824 29.824v.06c-.006 3.161 2.46 5.764 5.621 5.764h124.462c3.161 0 5.628-2.603 5.621-5.764 0-.02 0-.04 0-.06 0-16.471 13.353-29.824 29.824-29.824h.06c3.161.006 5.764-2.46 5.764-5.621v-124.462c0-3.161-2.603-5.628-5.764-5.621-.02 0-.04 0-.06 0z" fill="url(#SVGID_3_)"/><path d="m170.805 404.256c14.725-14.725 14.725-38.599 0-53.324s-38.599-14.725-53.324 0c-.009.009-.018.018-.026.026-1.364 1.366-3.558 1.366-4.922 0-.009-.009-.018-.018-.026-.026-14.725-14.725-38.599-14.725-53.324 0s-14.725 38.599 0 53.324h-.001l34.908 34.908c11.545 11.545 30.262 11.545 41.807 0z" fill="url(#SVGID_4_)"/><path d="m183.311 392.9c14.725-14.725 14.725-38.599 0-53.324s-38.599-14.725-53.324 0c-.009.009-.018.018-.026.026-1.363 1.366-3.558 1.366-4.922 0-.009-.009-.018-.018-.026-.026-14.725-14.725-38.599-14.725-53.324 0s-14.725 38.599 0 53.324h-.001l34.908 34.908c11.545 11.545 30.262 11.545 41.807 0z" fill="url(#SVGID_5_)"/><path d="m183.311 392.9c14.725-14.725 14.725-38.599 0-53.324-6.525-6.525-14.846-10.152-23.371-10.894.704 4.09 1.092 8.288 1.092 12.58 0 38.637-29.76 70.302-67.605 73.377l13.17 13.17c11.545 11.545 30.262 11.545 41.807 0z" fill="url(#SVGID_6_)"/><path d="m225.236 314.647c-.02 0-.04 0-.06 0-3.581 0-7.015-.633-10.196-1.79v139.285c3.181-1.157 6.615-1.79 10.196-1.79h.06c3.161.006 5.764-2.46 5.764-5.621v-124.463c0-3.161-2.603-5.627-5.764-5.621z" fill="url(#SVGID_7_)"/></g><g><g><path d="m477.166 255h-189.332c-18.134 0-32.834 14.7-32.834 32.833v189.333c0 18.134 14.7 32.834 32.834 32.834h189.333c18.133 0 32.833-14.7 32.833-32.834v-189.333c0-18.133-14.7-32.833-32.834-32.833z" fill="url(#SVGID_8_)"/><path d="m477.166 255h-40.02c18.134 0 32.834 14.7 32.834 32.834v189.333c0 18.134-14.7 32.834-32.834 32.834h40.02c18.134-.001 32.834-14.701 32.834-32.835v-189.333c0-18.133-14.7-32.833-32.834-32.833z" fill="url(#SVGID_9_)"/><path d="m480.176 314.647c-16.471 0-29.824-13.353-29.824-29.824 0-.02 0-.04 0-.06.006-3.161-2.46-5.764-5.621-5.764h-124.462c-3.161 0-5.628 2.603-5.621 5.764v.06c0 16.471-13.353 29.824-29.824 29.824-.02 0-.04 0-.06 0-3.161-.006-5.764 2.46-5.764 5.621v124.462c0 3.161 2.603 5.628 5.764 5.621h.06c16.471 0 29.824 13.353 29.824 29.824v.06c-.006 3.161 2.46 5.764 5.621 5.764h124.462c3.161 0 5.628-2.603 5.621-5.764 0-.02 0-.04 0-.06 0-16.471 13.353-29.824 29.824-29.824h.06c3.161.006 5.764-2.46 5.764-5.621v-124.462c0-3.161-2.603-5.628-5.764-5.621-.02 0-.04 0-.06 0z" fill="url(#SVGID_10_)"/><path d="m480.236 314.647c-.02 0-.04 0-.06 0-3.581 0-7.015-.633-10.196-1.79v139.285c3.181-1.157 6.615-1.79 10.196-1.79h.06c3.161.006 5.764-2.46 5.764-5.621v-124.463c0-3.161-2.603-5.627-5.764-5.621z" fill="url(#SVGID_11_)"/></g><path d="m385.283 332.657 11.598 23.5 25.934 3.768c13.712 1.992 19.187 18.843 9.265 28.514l-18.766 18.292 4.43 25.829c2.342 13.656-11.991 24.07-24.256 17.623l-23.196-12.195-23.196 12.195c-12.264 6.448-26.598-3.966-24.256-17.623l4.43-25.829-18.766-18.292c-9.922-9.671-4.447-26.522 9.265-28.514l25.934-3.768 11.598-23.5c6.132-12.425 23.849-12.425 29.982 0z" fill="url(#SVGID_12_)"/><g><path d="m397.491 327.417 11.598 23.5 25.934 3.768c13.712 1.992 19.187 18.843 9.265 28.514l-18.766 18.292 4.43 25.829c2.342 13.656-11.992 24.07-24.256 17.623l-23.196-12.194-23.196 12.195c-12.264 6.448-26.598-3.966-24.256-17.623l4.43-25.829-18.766-18.292c-9.922-9.671-4.447-26.522 9.265-28.514l25.934-3.768 11.598-23.5c6.132-12.426 23.85-12.426 29.982-.001z" fill="url(#SVGID_13_)"/><path d="m435.023 354.685-15.753-2.289v.019c0 36.923-29.932 66.854-66.854 66.854-5.397 0-10.642-.644-15.669-1.851l-1.698 9.903c-2.342 13.656 11.992 24.07 24.256 17.623l23.196-12.195 23.196 12.195c12.264 6.448 26.598-3.966 24.256-17.623l-4.43-25.829 18.766-18.293c9.921-9.671 4.446-26.521-9.266-28.514z" fill="url(#SVGID_14_)"/></g></g></g><g><g><g><path d="m349.666 0h-189.332c-18.134 0-32.834 14.7-32.834 32.834v189.333c0 18.133 14.7 32.833 32.834 32.833h189.333c18.134 0 32.834-14.7 32.834-32.834v-189.332c-.001-18.134-14.701-32.834-32.835-32.834z" fill="url(#SVGID_15_)"/><path d="m349.666 0h-40.02c18.134 0 32.834 14.7 32.834 32.834v189.333c0 18.134-14.7 32.834-32.834 32.834h40.02c18.134 0 32.834-14.7 32.834-32.834v-189.333c0-18.134-14.7-32.834-32.834-32.834z" fill="url(#SVGID_16_)"/><path d="m352.676 59.648c-16.471 0-29.824-13.353-29.824-29.824 0-.02 0-.04 0-.06.006-3.161-2.46-5.764-5.621-5.764h-124.462c-3.161 0-5.628 2.603-5.621 5.764v.06c0 16.471-13.353 29.824-29.824 29.824-.02 0-.04 0-.06 0-3.161-.006-5.764 2.46-5.764 5.621v124.462c0 3.161 2.603 5.628 5.764 5.621h.06c16.471 0 29.824 13.353 29.824 29.824v.06c-.006 3.161 2.46 5.764 5.621 5.764h124.462c3.161 0 5.628-2.603 5.621-5.764 0-.02 0-.04 0-.06 0-16.471 13.353-29.824 29.824-29.824h.06c3.161.006 5.764-2.46 5.764-5.621v-124.462c0-3.161-2.603-5.628-5.764-5.621-.02 0-.04 0-.06 0z" fill="url(#SVGID_17_)"/><path d="m352.736 59.648c-.02 0-.04 0-.06 0-3.581 0-7.015-.633-10.196-1.79v139.285c3.181-1.157 6.615-1.79 10.196-1.79h.06c3.161.006 5.764-2.46 5.764-5.621v-124.463c0-3.161-2.603-5.627-5.764-5.621z" fill="url(#SVGID_18_)"/></g></g><path d="m223.058 88.945-48.695 84.344c-6.979 12.088 1.745 27.198 15.703 27.198h97.39c13.958 0 22.682-15.11 15.703-27.198l-48.695-84.344c-6.979-12.088-24.427-12.088-31.406 0z" fill="url(#SVGID_19_)"/><path d="m239.297 76.262-48.695 84.344c-6.979 12.088 1.745 27.198 15.703 27.198h97.39c13.958 0 22.682-15.11 15.703-27.198l-48.695-84.344c-6.979-12.088-24.427-12.088-31.406 0z" fill="url(#SVGID_20_)"/><path d="m319.398 160.606-38.071-65.942c-3.701 39.422-36.873 70.275-77.262 70.275-5.068 0-10.017-.502-14.814-1.429-4.211 11.471 4.195 24.294 17.054 24.294h97.39c13.958.001 22.682-15.11 15.703-27.198z" fill="url(#SVGID_21_)"/></g></g></svg>