<svg height="512" viewBox="0 0 58 58" width="512" xmlns="http://www.w3.org/2000/svg"><g id="Page-1" fill="none" fill-rule="evenodd"><g id="011---Video-Cloud" fill-rule="nonzero" transform="translate(0 -1)"><path id="Shape" d="m58 26c0 6.0751322-4.9248678 11-11 11h-36c-6.07513225 0-11-4.9248678-11-11s4.92486775-11 11-11c.623565-.0030798 1.2461215.0504735 1.86.16 1.427149-3.0326141 4.4212431-5.02097 7.77-5.16 1.9678376-6.08875505 8.0738821-9.84005753 14.3946544-8.84348326s10.976386 6.4446301 10.9753456 12.84348326c.019924.3497165.019924.7002835 0 1.05.34 0 .7-.05 1-.05 6.0751322 0 11 4.9248678 11 11z" fill="#46b29d"/><path id="Shape" d="m58 26c0 6.0751322-4.9248678 11-11 11h-5.11c0-24.93-21.26-27-21.26-27 1.9678376-6.08875505 8.0738821-9.84005753 14.3946544-8.84348326s10.976386 6.4446301 10.9753456 12.84348326c.019924.3497165.019924.7002835 0 1.05.34 0 .7-.05 1-.05 6.0751322 0 11 4.9248678 11 11z" fill="#81ccb8"/><path id="Shape" d="m39.83 9.15c-.2923118.00001923-.5699973-.12786225-.76-.35-1.5177498-1.77444941-3.7349995-2.79723347-6.07-2.8-.5522847 0-1-.44771525-1-1s.4477153-1 1-1c2.9180174.00022682 5.6903707 1.27499794 7.59 3.49.1724034.201559.2576705.46335301.2370412.72778336-.0206293.26443034-.145465.50983336-.3470412.68221664-.179713.15852397-.4103774.24724105-.65.25z" fill="#fff"/><circle id="Oval" cx="29" cy="40" fill="#894b9d" r="19"/><path id="Shape" d="m14 41c-.5522847 0-1-.4477153-1-1 0-8.836556 7.163444-16 16-16 .5522847 0 1 .4477153 1 1s-.4477153 1-1 1c-7.7319865 0-14 6.2680135-14 14 0 .5522847-.4477153 1-1 1z" fill="#b49aca"/><path id="Shape" d="m29 56c-.5522847 0-1-.4477153-1-1s.4477153-1 1-1c7.7319865 0 14-6.2680135 14-14 0-.5522847.4477153-1 1-1s1 .4477153 1 1c0 4.2434638-1.6857094 8.3131264-4.6862915 11.3137085s-7.0702447 4.6862915-11.3137085 4.6862915z" fill="#b49aca"/><path id="Shape" d="m24 36.14v7.72c.0066918.391646.213986.7524296.5489697.95545.3349836.2030204.7507393.2198428 1.1010303.04455l7.72-3.86c.3654191-.2000148.5926427-.5834223.5926427-1s-.2272236-.7999852-.5926427-1l-7.72-3.86c-.350291-.1752928-.7660467-.1584704-1.1010303.04455-.3349837.2030204-.5422779.563804-.5489697.95545z" fill="#fff"/></g></g></svg>